<svg fill="#0ff0fc" xmlns="http://www.w3.org/2000/svg"  viewBox="0 0 64 64" width="256px" height="256px"><path d="M 19.738281 0.125 C 19.609375 0.125 19.480469 0.152344 19.351563 0.207031 C 18.84375 0.425781 18.613281 1.015625 18.832031 1.523438 L 19.328125 2.660156 C 6.308594 8.898438 0.4375 24.421875 6.238281 37.765625 C 9.113281 44.382813 14.390625 49.476563 21.105469 52.121094 C 23.988281 53.257813 26.988281 53.878906 30 53.988281 L 30 58 L 20.1875 58 C 18 58 15.90625 59.046875 14.589844 60.800781 L 13.390625 62.402344 C 13.160156 62.703125 13.125 63.109375 13.296875 63.449219 C 13.464844 63.785156 13.8125 64 14.1875 64 L 52.1875 64 C 52.570313 64 52.914063 63.785156 53.082031 63.449219 C 53.253906 63.109375 53.214844 62.703125 52.988281 62.402344 L 51.789063 60.800781 C 50.476563 59.046875 48.382813 58 46.1875 58 L 36 58 L 36 53.535156 C 37.636719 53.222656 39.257813 52.757813 40.839844 52.136719 L 41.332031 53.273438 C 41.496094 53.648438 41.863281 53.875 42.25 53.875 C 42.386719 53.875 42.519531 53.847656 42.648438 53.792969 C 43.15625 53.574219 43.386719 52.984375 43.167969 52.476563 L 42.667969 51.328125 C 47.621094 48.957031 51.675781 45.226563 54.410156 40.453125 C 54.6875 39.972656 54.523438 39.359375 54.042969 39.085938 C 53.566406 38.8125 52.953125 38.976563 52.675781 39.453125 C 50.15625 43.851563 46.425781 47.296875 41.871094 49.492188 L 40.269531 45.8125 C 44.972656 43.503906 48.605469 39.601563 50.539063 34.699219 C 50.921875 33.722656 51.207031 32.730469 51.4375 31.730469 C 51.449219 31.683594 51.46875 31.648438 51.472656 31.597656 C 51.472656 31.59375 51.472656 31.585938 51.472656 31.578125 C 52.351563 27.6875 52.101563 23.652344 50.726563 19.863281 C 50.71875 19.753906 50.703125 19.648438 50.65625 19.542969 L 49.859375 17.707031 C 49.8125 17.601563 49.742188 17.519531 49.671875 17.4375 C 47.839844 13.851563 45.0625 10.917969 41.621094 8.90625 C 41.613281 8.898438 41.609375 8.890625 41.605469 8.882813 C 41.550781 8.84375 41.488281 8.828125 41.433594 8.796875 C 40.554688 8.296875 39.652344 7.835938 38.695313 7.460938 C 33.789063 5.527344 28.457031 5.523438 23.5625 7.386719 L 20.667969 0.726563 C 20.503906 0.347656 20.128906 0.121094 19.738281 0.125 Z M 20.125 4.492188 L 21.730469 8.1875 C 17.03125 10.496094 13.394531 14.398438 11.464844 19.300781 C 11.089844 20.25 10.808594 21.21875 10.578125 22.195313 C 10.558594 22.261719 10.527344 22.324219 10.519531 22.398438 C 10.519531 22.410156 10.523438 22.421875 10.523438 22.433594 C 9.550781 26.746094 9.945313 31.242188 11.742188 35.375 C 13.539063 39.507813 16.558594 42.859375 20.375 45.089844 C 20.382813 45.097656 20.386719 45.105469 20.394531 45.113281 C 20.492188 45.1875 20.59375 45.242188 20.703125 45.277344 C 21.539063 45.746094 22.398438 46.179688 23.300781 46.535156 C 25.796875 47.519531 28.402344 48.011719 31.003906 48.011719 C 33.519531 48.011719 36.027344 47.523438 38.4375 46.609375 L 40.042969 50.300781 C 37.332031 51.359375 34.507813 51.925781 31.667969 52 L 31 52 C 30.988281 52 30.980469 52.003906 30.96875 52.003906 C 27.882813 52 24.792969 51.425781 21.839844 50.261719 C 15.625 47.8125 10.734375 43.09375 8.070313 36.96875 C 2.710938 24.636719 8.117188 10.289063 20.125 4.492188 Z M 30.996094 7.992188 C 33.347656 7.992188 35.707031 8.433594 37.964844 9.320313 C 38.457031 9.515625 38.929688 9.742188 39.402344 9.972656 C 38.410156 11.082031 37.25 12.164063 35.941406 13.199219 C 33.972656 10.789063 31.8125 9.039063 29.640625 8.0625 C 30.089844 8.027344 30.542969 7.992188 30.996094 7.992188 Z M 25.574219 9.164063 C 28.375 9.117188 31.539063 11.027344 34.328125 14.398438 C 32.457031 15.707031 30.371094 16.902344 28.148438 17.933594 L 24.394531 9.300781 C 24.78125 9.214844 25.171875 9.167969 25.574219 9.164063 Z M 22.5625 10.097656 L 26.3125 18.730469 C 24.042969 19.652344 21.746094 20.363281 19.515625 20.839844 C 18.867188 15.878906 19.957031 11.863281 22.5625 10.097656 Z M 41.1875 10.964844 C 44.375 12.976563 46.886719 15.890625 48.421875 19.421875 C 49.960938 22.957031 50.378906 26.78125 49.675781 30.484375 C 47.921875 30.410156 46.058594 30.519531 44.125 30.816406 C 43.902344 29.785156 43.621094 28.726563 43.269531 27.644531 C 43.097656 27.121094 42.535156 26.832031 42.011719 27 C 41.484375 27.171875 41.195313 27.738281 41.367188 28.261719 C 41.6875 29.253906 41.949219 30.226563 42.152344 31.171875 C 39.773438 31.675781 37.328125 32.4375 34.890625 33.4375 L 33.882813 31.121094 C 33.660156 30.613281 33.074219 30.382813 32.566406 30.605469 C 32.058594 30.824219 31.828125 31.414063 32.046875 31.921875 L 33.054688 34.234375 C 30.660156 35.335938 28.433594 36.609375 26.449219 38.003906 C 25.894531 37.207031 25.359375 36.355469 24.851563 35.441406 C 24.582031 34.960938 23.976563 34.789063 23.492188 35.054688 C 23.011719 35.324219 22.835938 35.929688 23.105469 36.410156 C 23.65625 37.40625 24.242188 38.332031 24.847656 39.199219 C 23.3125 40.410156 21.957031 41.699219 20.8125 43.035156 C 17.625 41.023438 15.113281 38.109375 13.578125 34.578125 C 12.039063 31.042969 11.621094 27.214844 12.324219 23.511719 C 12.667969 23.527344 13.007813 23.550781 13.363281 23.550781 C 14.808594 23.550781 16.324219 23.417969 17.875 23.183594 C 18.097656 24.214844 18.378906 25.273438 18.730469 26.355469 C 18.867188 26.777344 19.257813 27.046875 19.683594 27.046875 C 19.785156 27.046875 19.886719 27.03125 19.988281 27 C 20.515625 26.828125 20.804688 26.261719 20.636719 25.738281 C 20.3125 24.746094 20.054688 23.773438 19.851563 22.824219 C 22.230469 22.324219 24.671875 21.566406 27.113281 20.566406 L 28.121094 22.878906 C 28.28125 23.253906 28.648438 23.480469 29.035156 23.480469 C 29.171875 23.480469 29.304688 23.453125 29.4375 23.398438 C 29.941406 23.179688 30.171875 22.589844 29.953125 22.082031 L 28.949219 19.765625 C 31.34375 18.664063 33.566406 17.394531 35.550781 16 C 36.109375 16.792969 36.644531 17.644531 37.152344 18.558594 C 37.417969 19.039063 38.023438 19.214844 38.511719 18.949219 C 38.992188 18.679688 39.167969 18.070313 38.898438 17.589844 C 38.347656 16.59375 37.761719 15.664063 37.15625 14.800781 C 38.691406 13.585938 40.042969 12.296875 41.1875 10.964844 Z M 18.074219 13.09375 C 17.308594 15.351563 17.113281 18.117188 17.535156 21.203125 C 15.886719 21.453125 14.304688 21.5625 12.816406 21.53125 C 12.96875 21.027344 13.128906 20.527344 13.324219 20.035156 C 14.382813 17.347656 16.015625 15.003906 18.074219 13.09375 Z M 44.347656 19.101563 C 44.21875 19.101563 44.085938 19.128906 43.957031 19.1875 C 43.453125 19.40625 43.21875 19.992188 43.4375 20.5 L 44.234375 22.332031 C 44.398438 22.710938 44.765625 22.9375 45.15625 22.9375 C 45.289063 22.9375 45.421875 22.910156 45.550781 22.855469 C 46.058594 22.632813 46.289063 22.042969 46.070313 21.535156 L 45.273438 19.703125 C 45.109375 19.324219 44.738281 19.097656 44.347656 19.101563 Z M 39.761719 21.09375 C 39.632813 21.097656 39.5 21.125 39.375 21.179688 C 38.867188 21.398438 38.632813 21.988281 38.855469 22.496094 L 39.652344 24.328125 C 39.816406 24.703125 40.183594 24.929688 40.570313 24.929688 C 40.703125 24.929688 40.835938 24.902344 40.96875 24.847656 C 41.472656 24.628906 41.707031 24.039063 41.484375 23.53125 L 40.6875 21.699219 C 40.523438 21.316406 40.152344 21.089844 39.761719 21.09375 Z M 35.175781 23.089844 C 35.046875 23.089844 34.914063 23.117188 34.785156 23.171875 C 34.28125 23.390625 34.050781 23.980469 34.269531 24.488281 L 35.066406 26.324219 C 35.230469 26.699219 35.597656 26.921875 35.984375 26.921875 C 36.121094 26.921875 36.253906 26.898438 36.382813 26.84375 C 36.890625 26.621094 37.121094 26.03125 36.902344 25.527344 L 36.105469 23.6875 C 35.9375 23.308594 35.566406 23.082031 35.175781 23.089844 Z M 30.59375 25.082031 C 30.460938 25.082031 30.328125 25.109375 30.203125 25.167969 C 29.695313 25.386719 29.464844 25.972656 29.6875 26.480469 L 30.484375 28.3125 C 30.644531 28.691406 31.011719 28.917969 31.402344 28.917969 C 31.535156 28.917969 31.667969 28.890625 31.796875 28.832031 C 32.304688 28.613281 32.535156 28.027344 32.316406 27.519531 L 31.519531 25.6875 C 31.355469 25.304688 30.980469 25.078125 30.59375 25.082031 Z M 26.003906 27.078125 C 25.875 27.078125 25.742188 27.105469 25.617188 27.160156 C 25.109375 27.378906 24.878906 27.96875 25.097656 28.476563 L 25.894531 30.3125 C 26.058594 30.6875 26.425781 30.910156 26.8125 30.910156 C 26.949219 30.910156 27.082031 30.882813 27.214844 30.828125 C 27.71875 30.609375 27.949219 30.019531 27.730469 29.515625 L 26.933594 27.675781 C 26.769531 27.300781 26.394531 27.074219 26.003906 27.078125 Z M 21.421875 29.066406 C 21.292969 29.070313 21.160156 29.097656 21.03125 29.152344 C 20.527344 29.371094 20.292969 29.960938 20.515625 30.46875 L 21.3125 32.300781 C 21.476563 32.679688 21.84375 32.90625 22.230469 32.90625 C 22.363281 32.90625 22.496094 32.878906 22.625 32.824219 C 23.132813 32.601563 23.367188 32.011719 23.144531 31.503906 L 22.347656 29.671875 C 22.183594 29.292969 21.8125 29.0625 21.421875 29.066406 Z M 16.835938 31.0625 C 16.707031 31.066406 16.574219 31.089844 16.449219 31.144531 C 15.941406 31.367188 15.710938 31.957031 15.929688 32.464844 L 16.726563 34.296875 C 16.890625 34.675781 17.257813 34.898438 17.644531 34.898438 C 17.777344 34.898438 17.910156 34.871094 18.042969 34.8125 C 18.546875 34.59375 18.78125 34.007813 18.5625 33.5 L 17.765625 31.667969 C 17.597656 31.285156 17.226563 31.0625 16.835938 31.0625 Z M 49.1875 32.46875 C 49.03125 32.972656 48.871094 33.472656 48.675781 33.964844 C 47.617188 36.652344 45.984375 38.996094 43.925781 40.90625 C 44.691406 38.648438 44.886719 35.882813 44.464844 32.796875 C 46.113281 32.546875 47.699219 32.4375 49.1875 32.46875 Z M 42.484375 33.160156 C 43.132813 38.121094 42.042969 42.136719 39.4375 43.902344 L 35.6875 35.269531 C 37.953125 34.347656 40.25 33.636719 42.484375 33.160156 Z M 33.855469 36.066406 L 37.605469 44.699219 C 34.539063 45.398438 30.859375 43.457031 27.671875 39.601563 C 29.542969 38.292969 31.632813 37.097656 33.855469 36.066406 Z M 26.050781 40.804688 C 28.019531 43.214844 30.175781 44.957031 32.347656 45.9375 C 29.550781 46.140625 26.722656 45.738281 24.035156 44.675781 C 23.542969 44.484375 23.070313 44.257813 22.597656 44.027344 C 23.585938 42.917969 24.746094 41.835938 26.050781 40.804688 Z M 32 54 L 34 54 L 34 58 L 32 58 Z M 20.1875 60 L 46.1875 60 C 47.753906 60 49.25 60.746094 50.1875 62 L 16.1875 62 C 17.128906 60.746094 18.625 60 20.1875 60 Z"/></svg>