<svg width="178" height="178" viewBox="0 0 178 178" fill="none" xmlns="http://www.w3.org/2000/svg">
<circle cx="89" cy="89" r="88" fill="#2B2B2B" stroke="#0FF0FC" stroke-width="2" stroke-linecap="round"/>
<path d="M89 28C85.1617 28 82.0435 31.1182 82.0435 34.9565C82.0435 38.1902 84.2717 40.8872 87.2609 41.6685V47.1304H71.663C63.9592 47.1304 57.6957 53.394 57.6957 61.0978V68H49V88.8696H57.6957V104.522H120.304V88.8696H129V68H120.304V61.0978C120.304 53.394 114.041 47.1304 106.337 47.1304H90.7391V41.6685C93.7351 40.8872 95.9565 38.1902 95.9565 34.9565C95.9565 31.1182 92.8383 28 89 28ZM89 31.4783C90.9158 31.4783 92.4783 33.0408 92.4783 34.9565C92.4783 36.8723 90.9158 38.4348 89 38.4348C87.0842 38.4348 85.5217 36.8723 85.5217 34.9565C85.5217 33.0408 87.0842 31.4783 89 31.4783ZM71.663 50.6087H106.337C112.118 50.6087 116.826 55.3166 116.826 61.0978V101.043H106.391V87.1304H71.6087V101.043H61.1739V61.0978C61.1739 55.3166 65.8818 50.6087 71.663 50.6087ZM77.6957 61.0435C73.3818 61.0435 69.8696 64.5557 69.8696 68.8696C69.8696 73.1834 73.3818 76.6957 77.6957 76.6957C82.0095 76.6957 85.5217 73.1834 85.5217 68.8696C85.5217 64.5557 82.0095 61.0435 77.6957 61.0435ZM100.304 61.0435C95.9905 61.0435 92.4783 64.5557 92.4783 68.8696C92.4783 73.1834 95.9905 76.6957 100.304 76.6957C104.618 76.6957 108.13 73.1834 108.13 68.8696C108.13 64.5557 104.618 61.0435 100.304 61.0435ZM77.6957 64.5217C80.0937 64.5217 82.0435 66.4715 82.0435 68.8696C82.0435 71.2677 80.0937 73.2174 77.6957 73.2174C75.2976 73.2174 73.3478 71.2677 73.3478 68.8696C73.3478 66.4715 75.2976 64.5217 77.6957 64.5217ZM100.304 64.5217C102.702 64.5217 104.652 66.4715 104.652 68.8696C104.652 71.2677 102.702 73.2174 100.304 73.2174C97.9062 73.2174 95.9565 71.2677 95.9565 68.8696C95.9565 66.4715 97.9062 64.5217 100.304 64.5217ZM52.4783 71.4783H57.6957V85.3913H52.4783V71.4783ZM120.304 71.4783H125.522V85.3913H120.304V71.4783ZM75.087 90.6087H82.0435V101.043H75.087V90.6087ZM85.5217 90.6087H92.4783V101.043H85.5217V90.6087ZM95.9565 90.6087H102.913V101.043H95.9565V90.6087Z" fill="#0FF0FC"/>
<path d="M51.0394 136.522V121.976H53.234V128.922H53.4116L59.5124 121.976H62.2752L56.4087 128.525L62.2965 136.522H59.6545L54.9528 130.023L53.234 131.998V136.522H51.0394ZM77.0607 121.976V136.522H75.0437L67.6502 125.854H67.5153V136.522H65.3207V121.976H67.3519L74.7525 132.658H74.8874V121.976H77.0607ZM93.0021 121.976V136.522H90.9851L83.5916 125.854H83.4567V136.522H81.2621V121.976H83.2933L90.6939 132.658H90.8288V121.976H93.0021ZM98.4322 136.522H96.1026L101.337 121.976H103.873L109.107 136.522H106.777L102.665 124.618H102.551L98.4322 136.522ZM98.8228 130.826H106.38V132.672H98.8228V130.826ZM112.207 121.976H114.871L119.501 133.283H119.672L124.303 121.976H126.966V136.522H124.878V125.996H124.743L120.453 136.5H118.72L114.43 125.989H114.295V136.522H112.207V121.976Z" fill="#0FF0FC"/>
</svg>
