<svg width="354" height="107" viewBox="0 0 354 107" fill="none" xmlns="http://www.w3.org/2000/svg">
<path d="M62.4771 94.3426C60.468 94.3426 58.6857 94.0023 57.1303 93.3218C55.6073 92.6414 54.4083 91.7016 53.5334 90.5026C52.6909 89.2713 52.2696 87.8617 52.2696 86.2739C52.2696 83.8759 53.258 81.964 55.2346 80.5382C57.2437 79.1124 59.9495 78.3995 63.352 78.3995C66.3008 78.3995 68.6663 79.0314 70.4486 80.2952V79.1286C70.4486 77.6056 69.9787 76.4391 69.039 75.629C68.0992 74.8188 66.7383 74.4138 64.956 74.4138C62.2988 74.4138 60.0143 74.9809 58.1024 76.115C57.2923 76.5687 56.5956 76.7955 56.0123 76.7955C55.2994 76.7955 54.6676 76.4715 54.1167 75.8234C53.7602 75.3697 53.582 74.8999 53.582 74.4138C53.582 73.6037 54.0033 72.8908 54.8458 72.2751C56.0123 71.4326 57.4868 70.7683 59.269 70.2822C61.0513 69.7961 62.9307 69.5531 64.9074 69.5531C68.6663 69.5531 71.6151 70.4118 73.7538 72.1293C75.925 73.8143 77.0105 76.1474 77.0105 79.1286V91.6206C77.0105 92.4631 76.7189 93.1274 76.1356 93.6135C75.5847 94.0996 74.8232 94.3426 73.8511 94.3426C72.8465 94.3426 72.0688 94.1158 71.5179 93.6621C70.9671 93.2084 70.6916 92.5603 70.6916 91.7178V91.1831C68.8446 93.2894 66.1064 94.3426 62.4771 94.3426ZM63.9839 89.8708C66.0254 89.8708 67.6132 89.5629 68.7473 88.9472C69.9139 88.2991 70.4972 87.408 70.4972 86.2739C70.4972 85.2045 69.9139 84.3458 68.7473 83.6977C67.5808 83.0496 66.0254 82.7256 64.0811 82.7256C62.3312 82.7256 60.9702 83.0334 59.9981 83.6491C59.0584 84.2648 58.5885 85.1397 58.5885 86.2739C58.5885 87.408 59.0584 88.2991 59.9981 88.9472C60.9378 89.5629 62.2664 89.8708 63.9839 89.8708ZM89.8207 94.3426C86.2238 94.3426 83.9393 92.2039 82.9671 87.9265L79.6132 72.8584C79.5484 72.4695 79.516 72.2103 79.516 72.0807C79.516 71.2705 79.7915 70.6549 80.3423 70.2336C80.9256 69.7799 81.7357 69.5531 82.7727 69.5531C83.8096 69.5531 84.6522 69.7799 85.3002 70.2336C85.9483 70.6873 86.3372 71.3191 86.4668 72.1293L89.1402 88.2667C89.2374 88.9472 89.4642 89.2875 89.8207 89.2875C90.2095 89.2875 90.4526 88.9634 90.5498 88.3153L92.3968 74.8999C92.6561 73.1824 93.288 71.87 94.2925 70.9627C95.2971 70.023 96.5932 69.5531 98.1811 69.5531C99.7689 69.5531 101.065 70.023 102.07 70.9627C103.074 71.87 103.706 73.1824 103.965 74.8999L105.812 88.3153C105.91 88.9634 106.153 89.2875 106.541 89.2875C106.898 89.2875 107.125 88.9472 107.222 88.2667L109.895 72.1293C110.025 71.3191 110.414 70.6873 111.062 70.2336C111.71 69.7799 112.552 69.5531 113.589 69.5531C114.626 69.5531 115.42 69.7799 115.971 70.2336C116.554 70.6549 116.846 71.2705 116.846 72.0807C116.846 72.2103 116.814 72.4695 116.749 72.8584L113.395 87.9265C112.423 92.2039 110.138 94.3426 106.541 94.3426C104.759 94.3426 103.382 93.7917 102.41 92.69C101.438 91.5882 100.79 89.8708 100.466 87.5376L98.8616 75.5803C98.8292 75.2239 98.7481 74.9809 98.6185 74.8512C98.5213 74.6892 98.3755 74.6082 98.1811 74.6082C97.9866 74.6082 97.8246 74.6892 97.695 74.8512C97.5978 74.9809 97.533 75.2239 97.5006 75.5803L95.8965 87.5376C95.5725 89.8708 94.9244 91.5882 93.9523 92.69C92.9801 93.7917 91.6029 94.3426 89.8207 94.3426ZM131.402 94.3426C126.184 94.3426 122.344 92.8358 119.882 89.8222C119.363 89.1417 119.104 88.526 119.104 87.9751C119.104 87.1974 119.509 86.5169 120.319 85.9336C120.87 85.5772 121.405 85.3989 121.923 85.3989C122.636 85.3989 123.3 85.7068 123.916 86.3225C125.018 87.4242 126.087 88.2181 127.124 88.7042C128.193 89.1579 129.506 89.3847 131.061 89.3847C132.39 89.3847 133.508 89.2065 134.415 88.85C135.323 88.4936 135.776 88.0561 135.776 87.5376C135.776 86.8895 135.404 86.3387 134.658 85.885C133.913 85.4313 132.406 84.8481 130.138 84.1352C126.573 83.0334 124.046 81.883 122.555 80.6841C121.064 79.4527 120.319 77.9297 120.319 76.115C120.319 74.0735 121.194 72.4695 122.944 71.3029C124.694 70.1364 127.108 69.5531 130.186 69.5531C132.552 69.5531 134.691 69.9096 136.602 70.6225C138.514 71.3354 139.908 72.2913 140.783 73.4903C141.204 74.0411 141.415 74.592 141.415 75.1429C141.415 75.9206 141.026 76.5525 140.248 77.0386C139.697 77.395 139.13 77.5732 138.547 77.5732C137.607 77.5732 136.748 77.1844 135.971 76.4067C135.323 75.791 134.48 75.3211 133.443 74.9971C132.438 74.673 131.337 74.511 130.138 74.511C127.869 74.511 126.735 75.0457 126.735 76.115C126.735 76.5363 126.914 76.9089 127.27 77.233C127.626 77.557 128.258 77.8973 129.166 78.2537C130.105 78.6102 131.564 79.0962 133.54 79.7119C136.716 80.6841 138.936 81.7534 140.199 82.92C141.496 84.0865 142.144 85.6258 142.144 87.5376C142.144 89.5791 141.204 91.2318 139.324 92.4955C137.445 93.7269 134.804 94.3426 131.402 94.3426ZM160.123 94.3426C157.304 94.3426 154.793 93.8403 152.589 92.8358C150.418 91.7988 148.717 90.3406 147.485 88.4612C146.254 86.5817 145.638 84.4106 145.638 81.9478C145.638 79.4851 146.254 77.314 147.485 75.4345C148.717 73.5551 150.418 72.1131 152.589 71.1085C154.793 70.0716 157.304 69.5531 160.123 69.5531C162.942 69.5531 165.438 70.0716 167.609 71.1085C169.812 72.1131 171.53 73.5551 172.761 75.4345C173.992 77.314 174.608 79.4851 174.608 81.9478C174.608 84.4106 173.992 86.5817 172.761 88.4612C171.53 90.3406 169.812 91.7988 167.609 92.8358C165.438 93.8403 162.942 94.3426 160.123 94.3426ZM160.123 89.2875C162.618 89.2875 164.579 88.6394 166.005 87.3432C167.463 86.047 168.192 84.2486 168.192 81.9478C168.192 79.6471 167.463 77.8487 166.005 76.5525C164.579 75.2563 162.618 74.6082 160.123 74.6082C157.628 74.6082 155.651 75.2563 154.193 76.5525C152.767 77.8487 152.055 79.6471 152.055 81.9478C152.055 84.2486 152.767 86.047 154.193 87.3432C155.651 88.6394 157.628 89.2875 160.123 89.2875ZM181.04 94.3426C180.035 94.3426 179.258 94.0834 178.707 93.5649C178.156 93.0464 177.88 92.3335 177.88 91.4262V72.4695C177.88 71.5622 178.156 70.8493 178.707 70.3308C179.258 69.8123 180.035 69.5531 181.04 69.5531C182.012 69.5531 182.79 69.8123 183.373 70.3308C183.956 70.8493 184.248 71.5622 184.248 72.4695V73.6361C184.993 72.3399 185.933 71.3354 187.067 70.6225C188.201 69.9096 189.433 69.5531 190.761 69.5531C192.122 69.5531 193.354 69.9258 194.455 70.6711C195.557 71.384 196.383 72.3723 196.934 73.6361C199.235 70.9141 201.843 69.5531 204.76 69.5531C207.352 69.5531 209.378 70.4604 210.836 72.2751C212.294 74.0897 213.023 76.6173 213.023 79.8578V91.4262C213.023 92.3335 212.731 93.0464 212.148 93.5649C211.565 94.0834 210.787 94.3426 209.815 94.3426C208.81 94.3426 208.033 94.0834 207.482 93.5649C206.931 93.0464 206.656 92.3335 206.656 91.4262V79.4689C206.656 77.8811 206.364 76.6821 205.781 75.872C205.23 75.0295 204.403 74.6082 203.302 74.6082C202.362 74.6082 201.536 74.8674 200.823 75.3859C200.11 75.9044 199.446 76.7307 198.83 77.8649V91.4262C198.83 92.3335 198.538 93.0464 197.955 93.5649C197.372 94.0834 196.594 94.3426 195.622 94.3426C194.617 94.3426 193.84 94.0834 193.289 93.5649C192.738 93.0464 192.462 92.3335 192.462 91.4262V80.4896C192.462 76.5687 191.344 74.6082 189.109 74.6082C187.585 74.6082 186.387 75.2077 185.512 76.4067C184.669 77.6056 184.248 79.2583 184.248 81.3646V91.4262C184.248 92.3335 183.956 93.0464 183.373 93.5649C182.79 94.0834 182.012 94.3426 181.04 94.3426ZM230.501 94.3426C227.714 94.3426 225.284 93.8403 223.21 92.8358C221.136 91.8312 219.532 90.4216 218.398 88.607C217.296 86.7599 216.745 84.605 216.745 82.1423C216.745 78.1565 217.895 75.0619 220.196 72.8584C222.529 70.6549 225.802 69.5531 230.015 69.5531C232.607 69.5531 234.891 69.9582 236.868 70.7683C238.877 71.5784 240.433 72.7125 241.534 74.1708C242.669 75.5966 243.236 77.233 243.236 79.08C243.236 80.6355 242.733 81.8344 241.729 82.6769C240.757 83.5195 239.363 83.9407 237.549 83.9407H222.918C222.918 85.7554 223.55 87.1326 224.814 88.0723C226.11 88.9796 228.005 89.4333 230.501 89.4333C233.125 89.4333 235.361 88.85 237.208 87.6835C238.245 87.0354 239.055 86.7113 239.639 86.7113C240.19 86.7113 240.724 86.9706 241.243 87.489C241.794 88.0399 242.069 88.6394 242.069 89.2875C242.069 90.0652 241.745 90.6809 241.097 91.1345C239.736 92.1715 238.148 92.9654 236.333 93.5163C234.519 94.0672 232.575 94.3426 230.501 94.3426ZM235.604 79.4689C236.155 79.4689 236.544 79.3717 236.771 79.1773C236.998 78.9504 237.111 78.594 237.111 78.1079C237.111 76.9737 236.463 76.0826 235.167 75.4345C233.903 74.7864 232.186 74.4624 230.015 74.4624C227.843 74.4624 226.126 74.9161 224.862 75.8234C223.631 76.7307 223.015 77.9459 223.015 79.4689H235.604ZM268.5 93.8565C266.037 93.8565 264.125 93.2084 262.764 91.9122C261.403 90.6161 260.723 88.8014 260.723 86.4683V67.0255C260.723 64.7572 261.371 62.9912 262.667 61.7274C263.996 60.4636 265.826 59.8317 268.16 59.8317H274.965C278.691 59.8317 281.915 60.5122 284.637 61.8732C287.359 63.2342 289.433 65.1947 290.859 67.7546C292.317 70.3146 293.046 73.3606 293.046 76.8927C293.046 80.4248 292.317 83.4709 290.859 86.0308C289.433 88.5584 287.359 90.5026 284.637 91.8636C281.948 93.1922 278.723 93.8565 274.965 93.8565H268.5ZM274.478 88.85C278.529 88.85 281.543 87.8779 283.519 85.9336C285.496 83.9569 286.484 80.9433 286.484 76.8927C286.484 72.8422 285.48 69.8285 283.471 67.8519C281.494 65.8428 278.497 64.8382 274.478 64.8382H269.278C268.629 64.8382 268.111 65.0489 267.722 65.4701C267.366 65.8914 267.187 66.4747 267.187 67.22V86.4683C267.187 87.2136 267.366 87.7969 267.722 88.2181C268.111 88.6394 268.629 88.85 269.278 88.85H274.478ZM307.22 94.3426C305.211 94.3426 303.429 94.0023 301.873 93.3218C300.35 92.6414 299.151 91.7016 298.276 90.5026C297.434 89.2713 297.013 87.8617 297.013 86.2739C297.013 83.8759 298.001 81.964 299.978 80.5382C301.987 79.1124 304.693 78.3995 308.095 78.3995C311.044 78.3995 313.409 79.0314 315.192 80.2952V79.1286C315.192 77.6056 314.722 76.4391 313.782 75.629C312.842 74.8188 311.481 74.4138 309.699 74.4138C307.042 74.4138 304.757 74.9809 302.845 76.115C302.035 76.5687 301.339 76.7955 300.755 76.7955C300.042 76.7955 299.411 76.4715 298.86 75.8234C298.503 75.3697 298.325 74.8999 298.325 74.4138C298.325 73.6037 298.746 72.8908 299.589 72.2751C300.755 71.4326 302.23 70.7683 304.012 70.2822C305.794 69.7961 307.674 69.5531 309.65 69.5531C313.409 69.5531 316.358 70.4118 318.497 72.1293C320.668 73.8143 321.754 76.1474 321.754 79.1286V91.6206C321.754 92.4631 321.462 93.1274 320.879 93.6135C320.328 94.0996 319.566 94.3426 318.594 94.3426C317.59 94.3426 316.812 94.1158 316.261 93.6621C315.71 93.2084 315.435 92.5603 315.435 91.7178V91.1831C313.588 93.2894 310.849 94.3426 307.22 94.3426ZM308.727 89.8708C310.768 89.8708 312.356 89.5629 313.49 88.9472C314.657 88.2991 315.24 87.408 315.24 86.2739C315.24 85.2045 314.657 84.3458 313.49 83.6977C312.324 83.0496 310.768 82.7256 308.824 82.7256C307.074 82.7256 305.713 83.0334 304.741 83.6491C303.801 84.2648 303.332 85.1397 303.332 86.2739C303.332 87.408 303.801 88.2991 304.741 88.9472C305.681 89.5629 307.009 89.8708 308.727 89.8708ZM338.034 106.008C335.668 106.008 333.513 105.636 331.569 104.89C329.657 104.177 328.183 103.173 327.146 101.877C326.725 101.326 326.514 100.759 326.514 100.175C326.514 99.3977 326.887 98.6848 327.632 98.0367C328.118 97.6479 328.653 97.4534 329.236 97.4534C330.111 97.4534 330.953 97.8909 331.764 98.7658C333.157 100.256 335.198 101.002 337.888 101.002C340.189 101.002 341.922 100.386 343.089 99.1547C344.288 97.9557 344.887 96.1896 344.887 93.8565V91.815C344.11 92.5603 343.105 93.176 341.874 93.6621C340.642 94.1158 339.476 94.3426 338.374 94.3426C334.323 94.3426 331.164 93.2732 328.896 91.1345C326.627 88.9634 325.493 85.9498 325.493 82.0937V72.2751C325.493 71.4974 325.801 70.8493 326.417 70.3308C327.032 69.8123 327.794 69.5531 328.701 69.5531C329.576 69.5531 330.322 69.8285 330.937 70.3794C331.553 70.8979 331.861 71.5298 331.861 72.2751V82.0937C331.861 84.4268 332.428 86.2415 333.562 87.5376C334.729 88.8338 336.333 89.4819 338.374 89.4819C340.351 89.4819 341.89 88.8338 342.992 87.5376C344.093 86.2415 344.644 84.4268 344.644 82.0937V72.8098C344.644 71.7728 344.92 70.9789 345.471 70.428C346.054 69.8447 346.848 69.5531 347.852 69.5531C348.857 69.5531 349.635 69.8447 350.185 70.428C350.736 70.9789 351.012 71.7728 351.012 72.8098V93.0302C351.012 97.1132 349.861 100.289 347.561 102.557C345.292 104.858 342.117 106.008 338.034 106.008Z" fill="#5856D6"/>
<path d="M35.6179 39.6139C31.5135 47.5221 26.7911 54.0789 22.3314 58.2111C20.0989 60.2796 17.9869 61.6893 16.1029 62.3874C14.2356 63.0794 12.6796 63.0465 11.4038 62.3843C10.128 61.7222 9.20551 60.4687 8.69658 58.5434C8.1831 56.601 8.12022 54.0626 8.52677 51.0463C9.33887 45.0211 11.9825 37.3854 16.087 29.4772C20.1914 21.5689 24.9138 15.0121 29.3735 10.88C31.606 8.81142 33.718 7.4018 35.602 6.70364C37.4693 6.01167 39.0253 6.04456 40.3011 6.70671C41.5769 7.36886 42.4994 8.62236 43.0083 10.5476C43.5218 12.4901 43.5847 15.0285 43.1781 18.0448C42.366 24.07 39.7224 31.7057 35.6179 39.6139Z" fill="#5856D6" stroke="#5856D6" stroke-width="2.43034"/>
<rect x="27.4315" y="49.9324" width="9.72137" height="41.3158" rx="4.86068" fill="#5856D6" stroke="#5856D6" stroke-width="2.43034"/>
<path d="M90.6193 40.321C90.6193 47.218 86.909 52.511 80.5648 56.2571C74.1192 60.0631 65.1705 62.0861 55.6997 62.0861C38.4633 62.0861 27.4304 46.5671 27.4304 30.9604C27.4304 27.6002 28.8581 23.0666 31.6498 18.5199C34.4124 14.0205 38.3053 9.85018 42.8061 7.10175C47.2768 4.37175 52.2213 3.1083 57.3187 4.08813C62.4202 5.06876 68.1962 8.39704 74.1247 15.8487C78.9368 21.8971 83.0132 25.1752 85.6618 27.3052C86.5212 27.9962 87.2302 28.5664 87.7653 29.0711C88.797 30.0442 89.3972 30.8824 89.8265 32.2545C90.3115 33.8046 90.6193 36.1812 90.6193 40.321Z" stroke="#5856D6" stroke-width="7.29103"/>
<circle cx="92.369" cy="34.5484" r="4.21486" fill="#5856D6" stroke="#5856D6" stroke-width="2.43034"/>
<path d="M53.1437 27.6682C53.1437 28.9301 52.7585 30.0258 52.1939 30.7787C51.6296 31.5311 50.9427 31.883 50.2863 31.883C49.63 31.883 48.9431 31.5311 48.3788 30.7787C47.8141 30.0258 47.429 28.9301 47.429 27.6682C47.429 26.4062 47.8141 25.3105 48.3788 24.5576C48.9431 23.8052 49.63 23.4533 50.2863 23.4533C50.9427 23.4533 51.6296 23.8052 52.1939 24.5576C52.7585 25.3105 53.1437 26.4062 53.1437 27.6682Z" fill="#5856D6" stroke="#5856D6" stroke-width="2.43034"/>
</svg>
