<svg fill="#0ff0fc" xmlns="http://www.w3.org/2000/svg"  viewBox="0 0 48 48" width="192px" height="192px"><path d="M 23.414062 -0.01953125 A 21 21 0 0 0 15.113281 40 L 13 40 A 3.00328 3.00328 0 0 0 10 43 L 10 47 A 1 1 0 0 0 11 48 L 37 48 A 0.99974 0.99974 0 0 0 38 47 L 38 43 A 3.00328 3.00328 0 0 0 35 40 L 32.884766 40 A 21.00822 21.00822 0 0 0 45 21 A 21 21 0 0 0 23.414062 -0.01953125 z M 24 2 A 18.95666 18.95666 0 0 1 41.191406 29.039062 A 0.95287 0.95287 0 0 0 41 29 A 5.31844 5.31844 0 0 0 37.587891 30.183594 A 3.53187 3.53187 0 0 1 33.070312 30.183594 A 5.50993 5.50993 0 0 0 26.246094 30.183594 A 4.18842 4.18842 0 0 1 25 30.869141 L 25 29 L 29 29 A 0.99928 0.99928 0 0 0 29.847656 27.470703 L 28.304688 25 L 29 25 A 0.99928 0.99928 0 0 0 29.847656 23.470703 L 24.847656 15.470703 A 1.03918 1.03918 0 0 0 23.152344 15.470703 L 18.152344 23.470703 A 1.00008 1.00008 0 0 0 19 25 L 19.695312 25 L 18.152344 27.470703 A 1.00008 1.00008 0 0 0 19 29 L 23 29 L 23 30.873047 A 4.14272 4.14272 0 0 1 21.736328 30.183594 A 5.50269 5.50269 0 0 0 14.919922 30.183594 A 3.33984 3.33984 0 0 1 12.664062 31 A 3.335 3.335 0 0 1 10.410156 30.183594 A 5.31531 5.31531 0 0 0 7 29 A 0.953 0.953 0 0 0 6.8085938 29.039062 A 18.95671 18.95671 0 0 1 24 2 z M 25 4 L 25 6 L 27 6 L 27 4 L 25 4 z M 13.970703 8 A 1 1 0 0 0 13 9 L 13 11 A 1 1 0 0 0 14 12 A 1 1 0 0 0 15 11 L 15 9 A 1 1 0 0 0 13.970703 8 z M 30 8 L 30 10 L 32 10 L 32 8 L 30 8 z M 23 11 L 23 13 L 25 13 L 25 11 L 23 11 z M 10 12 A 1 1 0 0 0 10 14 L 12 14 A 1 1 0 0 0 12 12 L 10 12 z M 16 12 A 1 1 0 0 0 16 14 L 18 14 A 1 1 0 0 0 18 12 L 16 12 z M 36 12 L 36 14 L 38 14 L 38 12 L 36 12 z M 14 14 A 1 1 0 0 0 13 15 L 13 17 A 1 1 0 0 0 15 17 L 15 15 A 1 1 0 0 0 14 14 z M 30 14 L 30 16 L 32 16 L 32 14 L 30 14 z M 35.970703 17 A 1 1 0 0 0 35 18 L 35 20 A 0.99974 0.99974 0 0 0 36 21 A 0.99974 0.99974 0 0 0 37 20 L 37 18 A 1 1 0 0 0 35.970703 17 z M 24 17.886719 L 27.195312 23 L 26.5 23 A 0.99928 0.99928 0 0 0 25.652344 24.529297 L 27.195312 27 L 25 27 L 25 22 A 1 1 0 0 0 24 21 A 1 1 0 0 0 23 22 L 23 27 L 20.804688 27 L 22.347656 24.529297 A 1.00008 1.00008 0 0 0 21.5 23 L 20.804688 23 L 24 17.886719 z M 8 18 L 8 20 L 10 20 L 10 18 L 8 18 z M 13 21 L 13 23 L 15 23 L 15 21 L 13 21 z M 32 21 A 0.99974 0.99974 0 0 0 31 22 A 0.99974 0.99974 0 0 0 32 23 L 34 23 A 1 1 0 0 0 34 21 L 32 21 z M 38 21 A 0.99974 0.99974 0 0 0 37 22 A 0.99974 0.99974 0 0 0 38 23 L 40 23 A 1 1 0 0 0 40 21 L 38 21 z M 36 23 A 0.99974 0.99974 0 0 0 35 24 L 35 26 A 1 1 0 0 0 37 26 L 37 24 A 0.99974 0.99974 0 0 0 36 23 z M 8 24 L 8 26 L 10 26 L 10 24 L 8 24 z M 18.345703 31 A 3.52123 3.52123 0 0 1 20.583984 31.816406 A 5.31334 5.31334 0 0 0 23.990234 33 L 23.998047 33 L 24 33 L 24.001953 33 A 5.31316 5.31316 0 0 0 27.400391 31.816406 A 3.53 3.53 0 0 1 31.917969 31.816406 A 5.51133 5.51133 0 0 0 38.740234 31.816406 A 4.05328 4.05328 0 0 1 40.054688 31.115234 A 18.98594 18.98594 0 0 1 24 40 A 18.986 18.986 0 0 1 7.9453125 31.115234 A 4.05519 4.05519 0 0 1 9.2558594 31.816406 A 5.31111 5.31111 0 0 0 12.664062 33 A 5.31255 5.31255 0 0 0 16.072266 31.816406 A 3.52123 3.52123 0 0 1 18.345703 31 z M 13 42 L 35 42 A 1.001 1.001 0 0 1 36 43 L 34 43 A 1 1 0 0 0 34 45 L 36 45 L 36 46 L 12 46 L 12 45 L 24 45 A 1 1 0 0 0 24 43 L 12 43 A 1.0013 1.0013 0 0 1 13 42 z M 28 43 A 1 1 0 0 0 28 45 L 30 45 A 1 1 0 0 0 30 43 L 28 43 z"/></svg>